<?xml version="1.0" encoding="UTF-8"?>
<svg id="Capa_2" data-name="Capa 2" xmlns="http://www.w3.org/2000/svg" viewBox="0 0 121.64 113.24">
  <defs>
    <style>
      .cls-1 {
        fill: #fff;
      }

      .cls-2 {
        fill: #b8ff00;
      }
    </style>
  </defs>
  <g id="Capa_1-2" data-name="Capa 1">
    <path class="cls-2" d="M.03,85.06C.03,76.95.08,68.84,0,60.72c-.02-1.93.57-3.39,1.93-4.74,14.99-14.96,29.94-29.95,44.9-44.94,3.15-3.15,6.4-6.2,9.4-9.48,2.08-2.28,3.68-1.9,5.65.08,6.27,6.32,12.65,12.54,18.96,18.83,11.85,11.8,23.65,23.65,35.55,35.4,1.9,1.88,2.79,3.88,2.77,6.55-.09,15.53-.06,31.07-.1,46.6,0,3.7-.47,4.17-4.06,4.18-11.78.02-23.56.02-35.33,0-3.62,0-3.92-.32-3.93-3.87-.02-9.3-.11-18.6.04-27.9.05-2.89-.94-3.75-3.76-3.7-7.92.15-15.84.14-23.75,0-2.64-.05-3.41.88-3.38,3.44.11,9.4-.03,18.8.07,28.2.03,2.77-.89,3.89-3.76,3.87-12.47-.11-24.94-.11-37.41-.02-2.82.02-3.78-.96-3.73-3.82.16-8.11.06-16.23.06-24.34-.03,0-.05,0-.08,0ZM85.02,56.39v-.02c-4.05,0-8.1-.05-12.14.03-1.16.02-2.9-.75-3.3.98-.33,1.4.18,2.95,1.42,3.99,9.09,7.59,18.19,15.17,27.3,22.73.57.47,1.15,1.35,2.01.84.64-.38.4-1.26.4-1.93,0-7.9-.06-15.79,0-23.69.02-2.14-.76-3.02-2.95-2.96-4.24.11-8.49.03-12.74.03Z"/>
    <path class="cls-1" d="M121.62,63.27s.02,0,.02,0c0,0-.02,0-.02,0Z"/>
  </g>
</svg>